<svg width="20" height="22" viewBox="0 0 20 22" fill="none" xmlns="http://www.w3.org/2000/svg">
<path d="M17.3607 0.585282C17.2062 0.578251 17.0502 0.587463 16.8942 0.613765L10.6794 1.67171C10.1686 1.75921 9.79634 2.19085 9.79634 2.6971V8.91658C9.79634 9.49158 10.2741 9.95825 10.8627 9.95825H18.3271C18.9157 9.95825 19.3935 9.49158 19.3935 8.91658V2.66658C19.3935 2.04991 19.1163 1.4684 18.6333 1.07153C18.271 0.773873 17.8244 0.606376 17.3607 0.585282ZM6.65561 2.38378C6.57683 2.37977 6.4956 2.38409 6.41402 2.39803L1.96536 3.15486C0.944862 3.32882 0.199219 4.19518 0.199219 5.20768V8.91658C0.199219 9.49158 0.676942 9.95825 1.26557 9.95825H6.5973C7.18592 9.95825 7.66365 9.49158 7.66365 8.91658V3.42342C7.66365 2.8574 7.20711 2.41187 6.65561 2.38378ZM1.26557 12.0416C0.676942 12.0416 0.199219 12.5082 0.199219 13.0832V16.7922C0.199219 17.8047 0.943795 18.671 1.96536 18.845L6.41402 19.6018C7.06662 19.7122 7.66365 19.2233 7.66365 18.5764V13.0832C7.66365 12.5082 7.18592 12.0416 6.5973 12.0416H1.26557ZM10.8627 12.0416C10.2741 12.0416 9.79634 12.5082 9.79634 13.0832V19.3027C9.79634 19.809 10.1686 20.2417 10.6794 20.3281L16.8942 21.3861C17.0168 21.4069 17.1402 21.4186 17.2628 21.4186C17.7608 21.4186 18.2451 21.2471 18.6333 20.9283C19.1163 20.5304 19.3935 19.9489 19.3935 19.3333V13.0832C19.3935 12.5082 18.9157 12.0416 18.3271 12.0416H10.8627Z" fill="#76808C"/>
</svg>
