<svg width="26" height="26" viewBox="0 0 26 26" fill="none" xmlns="http://www.w3.org/2000/svg">
<g clip-path="url(#clip0_400_11857)">
<path d="M21.0491 14.0615C21.0924 13.7148 21.1249 13.3682 21.1249 12.9998C21.1249 12.6315 21.0924 12.2848 21.0491 11.9382L23.3349 10.1507C23.5408 9.98817 23.5949 9.69567 23.4649 9.45734L21.2983 5.709C21.1683 5.47067 20.8758 5.384 20.6374 5.47067L17.9399 6.554C17.3766 6.12067 16.7699 5.76317 16.1091 5.49234L15.6974 2.6215C15.6649 2.3615 15.4374 2.1665 15.1666 2.1665H10.8333C10.5624 2.1665 10.3349 2.3615 10.3024 2.6215L9.89078 5.49234C9.22995 5.76317 8.62328 6.1315 8.05995 6.554L5.36245 5.47067C5.11328 5.37317 4.83162 5.47067 4.70162 5.709L2.53495 9.45734C2.39411 9.69567 2.45911 9.98817 2.66495 10.1507L4.95078 11.9382C4.90745 12.2848 4.87495 12.6423 4.87495 12.9998C4.87495 13.3573 4.90745 13.7148 4.95078 14.0615L2.66495 15.849C2.45911 16.0115 2.40495 16.304 2.53495 16.5423L4.70162 20.2907C4.83162 20.529 5.12411 20.6157 5.36245 20.529L8.05995 19.4457C8.62328 19.879 9.22995 20.2365 9.89078 20.5073L10.3024 23.3782C10.3349 23.6382 10.5624 23.8332 10.8333 23.8332H15.1666C15.4374 23.8332 15.6649 23.6382 15.6974 23.3782L16.1091 20.5073C16.7699 20.2365 17.3766 19.8682 17.9399 19.4457L20.6374 20.529C20.8866 20.6265 21.1683 20.529 21.2983 20.2907L23.4649 16.5423C23.5949 16.304 23.5408 16.0115 23.3349 15.849L21.0491 14.0615ZM12.9999 16.7915C10.9091 16.7915 9.20828 15.0907 9.20828 12.9998C9.20828 10.909 10.9091 9.20817 12.9999 9.20817C15.0908 9.20817 16.7916 10.909 16.7916 12.9998C16.7916 15.0907 15.0908 16.7915 12.9999 16.7915Z" fill="#76808C"/>
</g>
<defs>
<clipPath id="clip0_400_11857">
<rect width="26" height="26" fill="white"/>
</clipPath>
</defs>
</svg>
