<svg width="88" height="21" viewBox="0 0 88 21" fill="none" xmlns="http://www.w3.org/2000/svg">
<path d="M10.4581 0C4.9453 0 0.429149 4.25069 0 9.65266L5.62473 11.9782C6.10132 11.6523 6.67708 11.4613 7.29649 11.4613C7.352 11.4613 7.40727 11.4632 7.46207 11.4663L9.96343 7.84069C9.96343 7.82337 9.96319 7.80653 9.96319 7.78945C9.96319 5.60717 11.7384 3.83174 13.9209 3.83174C16.1032 3.83174 17.8784 5.60717 17.8784 7.78945C17.8784 9.97173 16.1032 11.7474 13.9209 11.7474C13.8908 11.7474 13.8609 11.7467 13.831 11.746L10.2635 14.2915C10.2654 14.3377 10.2671 14.3849 10.2671 14.4319C10.2671 16.0702 8.93456 17.4025 7.29649 17.4025C5.85863 17.4025 4.65635 16.3762 4.38401 15.0171L0.361539 13.3542C1.607 17.759 5.65391 20.9885 10.4581 20.9885C16.2541 20.9885 20.9524 16.2899 20.9524 10.4946C20.9524 4.69834 16.2538 0 10.4581 0Z" fill="#F3F3F3"/>
<path d="M6.57622 15.9237L5.28711 15.3911C5.51556 15.8668 5.91079 16.2651 6.43554 16.4838C7.56997 16.9564 8.87782 16.4181 9.35062 15.2827C9.57955 14.7337 9.58097 14.1276 9.35394 13.5772C9.12739 13.0266 8.6999 12.5973 8.15024 12.3681C7.60485 12.1411 7.02055 12.1494 6.50718 12.3432L7.83876 12.8938C8.67547 13.2425 9.07117 14.2033 8.72244 15.04C8.37442 15.877 7.41293 16.2727 6.57622 15.9237Z" fill="#F3F3F3"/>
<path d="M16.5578 7.78939C16.5578 6.33541 15.375 5.15234 13.9207 5.15234C12.4668 5.15234 11.2837 6.33541 11.2837 7.78939C11.2837 9.24361 12.4668 10.4262 13.9207 10.4262C15.375 10.426 16.5578 9.24338 16.5578 7.78939ZM11.9441 7.78489C11.9441 6.69078 12.8311 5.80401 13.9252 5.80401C15.0194 5.80401 15.9064 6.69078 15.9064 7.78489C15.9064 8.87899 15.0194 9.76576 13.9252 9.76576C12.8311 9.76576 11.9441 8.87875 11.9441 7.78489Z" fill="#F3F3F3"/>
<path d="M37.27 6.28698L36.3177 7.96092C35.5842 7.44846 34.5901 7.14002 33.7223 7.14002C32.7305 7.14002 32.1168 7.55063 32.1168 8.28607C32.1168 9.17959 33.2069 9.38746 34.8272 9.96901C36.569 10.5849 37.5701 11.3088 37.5701 12.904C37.5701 15.0866 35.8538 16.3123 33.3869 16.3123C32.1846 16.3123 30.7343 16.0019 29.6194 15.3237L30.314 13.4679C31.2197 13.9463 32.3031 14.23 33.269 14.23C34.5708 14.23 35.1896 13.7497 35.1896 13.0396C35.1896 12.2271 34.246 11.9829 32.7228 11.4784C30.9868 10.8988 29.7839 10.1383 29.7839 8.37282C29.7839 6.38176 31.3785 5.23828 33.6728 5.23828C35.2719 5.23828 36.5571 5.74496 37.27 6.28698Z" fill="#F3F3F3"/>
<path d="M44.7145 7.16154V15.9454H42.4722V7.16154H39.2175V5.23828H47.9596V7.16154H44.7145Z" fill="#F3F3F3"/>
<path d="M52.6862 7.15576V9.56835H56.9774V11.4916H52.6862V14.0045H57.665V15.9454H50.4446V5.23828H57.665V7.15576H52.6862Z" fill="#F3F3F3"/>
<path d="M62.6699 13.8663L61.9612 15.9454H59.6106L63.6252 5.23828H65.8822L70.0102 15.9451H67.5803L66.8561 13.866L62.6699 13.8663ZM64.741 7.79224L63.2788 12.0793H66.2334L64.741 7.79224Z" fill="#F3F3F3"/>
<path d="M81.518 9.37686L78.5878 15.6334H77.3226L74.4399 9.43277V15.9454H72.2927V5.23828H74.4351L78.0336 12.9673L81.5042 5.23828H83.6652V15.9454H81.5183L81.518 9.37686Z" fill="#F3F3F3"/>
<path d="M88.0001 5.98366C88.0001 6.90384 87.3106 7.47735 86.5193 7.47735C85.725 7.47735 85.0339 6.90384 85.0339 5.98366C85.0339 5.06379 85.725 4.49414 86.5193 4.49414C87.3109 4.49414 88.0001 5.06379 88.0001 5.98366ZM85.2829 5.98366C85.2829 6.75348 85.8375 7.23702 86.5193 7.23702C87.1985 7.23702 87.7508 6.75348 87.7508 5.98366C87.7508 5.21159 87.1985 4.73543 86.5193 4.73543C85.8394 4.73543 85.2829 5.21737 85.2829 5.98366ZM86.5398 5.22251C86.9238 5.22251 87.0529 5.42557 87.0529 5.64501C87.0529 5.84614 86.9337 5.98109 86.7885 6.04984L87.1326 6.69468H86.8508L86.5607 6.1231H86.2616V6.69468H86.0271V5.22251H86.5398ZM86.2638 5.90751H86.5254C86.6947 5.90751 86.7946 5.80116 86.7946 5.6675C86.7946 5.53256 86.723 5.44581 86.5247 5.44581H86.2635V5.90751H86.2638Z" fill="#F3F3F3"/>
</svg>
